<svg xmlns="http://www.w3.org/2000/svg" viewBox="0 0 800 800" preserveAspectRatio="xMidYMid meet" role="img" aria-label="Interactive Arkansas Technology Map">
    <defs>
        <!-- Region Gradients with more sophisticated color transitions -->
        <linearGradient id="northwestGradient" x1="0%" y1="0%" x2="100%" y2="100%">
            <stop offset="0%" style="stop-color:#1a5484"/>
            <stop offset="50%" style="stop-color:#2D5B7F"/>
            <stop offset="100%" style="stop-color:#4682B4"/>
        </linearGradient>
        
        <linearGradient id="northeastGradient" x1="0%" y1="0%" x2="100%" y2="100%">
            <stop offset="0%" style="stop-color:#3498DB"/>
            <stop offset="60%" style="stop-color:#3A7CB8"/>
            <stop offset="100%" style="stop-color:#4682B4"/>
        </linearGradient>
        
        <linearGradient id="centralGradient" x1="0%" y1="0%" x2="100%" y2="100%">
            <stop offset="10%" style="stop-color:#2D5B7F"/>
            <stop offset="50%" style="stop-color:#2C6EA1"/>
            <stop offset="100%" style="stop-color:#3498DB"/>
        </linearGradient>

        <linearGradient id="southwestGradient" x1="0%" y1="0%" x2="100%" y2="100%">
            <stop offset="0%" style="stop-color:#4682B4"/>
            <stop offset="50%" style="stop-color:#3a6b92"/>
            <stop offset="100%" style="stop-color:#2D5B7F"/>
        </linearGradient>

        <linearGradient id="southeastGradient" x1="0%" y1="0%" x2="100%" y2="100%">
            <stop offset="0%" style="stop-color:#3498DB"/>
            <stop offset="50%" style="stop-color:#2D6DA7"/>
            <stop offset="100%" style="stop-color:#2D5B7F"/>
        </linearGradient>

        <!-- Enhanced Tech Circuit Pattern -->
        <pattern id="techPattern" x="0" y="0" width="40" height="40" patternUnits="userSpaceOnUse">
            <rect width="40" height="40" fill="none"/>
            <path d="M0,20 h40 M20,0 v40" stroke="rgba(255,255,255,0.07)" stroke-width="0.5"/>
            <path d="M10,0 v10 h10 v10 h10 v10 h10" stroke="rgba(255,255,255,0.1)" stroke-width="0.75" fill="none"/>
            <path d="M0,30 h10 v-10 h10 v-10 h10 v-10" stroke="rgba(255,255,255,0.1)" stroke-width="0.75" fill="none"/>
            <circle cx="10" cy="10" r="1.5" fill="rgba(255,255,255,0.2)"/>
            <circle cx="30" cy="10" r="1.5" fill="rgba(255,255,255,0.15)"/>
            <circle cx="10" cy="30" r="1.5" fill="rgba(255,255,255,0.15)"/>
            <circle cx="30" cy="30" r="1.5" fill="rgba(255,255,255,0.2)"/>
            <circle cx="20" cy="20" r="2" fill="rgba(255,255,255,0.25)"/>
        </pattern>

        <!-- County Boundaries Pattern -->
        <pattern id="countyLines" x="0" y="0" width="10" height="10" patternUnits="userSpaceOnUse">
            <path d="M 5,0 L 5,10 M 0,5 L 10,5" 
                  stroke="rgba(255,255,255,0.4)" 
                  stroke-width="0.5" 
                  stroke-dasharray="1 2"/>
        </pattern>

        <!-- Enhanced Drop Shadow -->
        <filter id="dropShadow" x="-20%" y="-20%" width="140%" height="140%">
            <feGaussianBlur in="SourceAlpha" stdDeviation="4"/>
            <feOffset dx="0" dy="4" result="offsetblur"/>
            <feFlood flood-color="rgba(0,0,0,0.25)"/>
            <feComposite in2="offsetblur" operator="in"/>
            <feMerge>
                <feMergeNode/>
                <feMergeNode in="SourceGraphic"/>
            </feMerge>
        </filter>

        <!-- Enhanced City Marker Glow -->
        <filter id="cityGlow" x="-50%" y="-50%" width="200%" height="200%">
            <feGaussianBlur in="SourceGraphic" stdDeviation="2"/>
            <feColorMatrix type="matrix" values="0 0 0 0 0.2 0 0 0 0 0.5 0 0 0 0 0.9 0 0 0 1 0"/>
            <feMerge>
                <feMergeNode/>
                <feMergeNode in="SourceGraphic"/>
            </feMerge>
        </filter>

        <!-- Enhanced River Flow Animation -->
        <linearGradient id="riverFlow" x1="0%" y1="0%" x2="100%" y2="0%">
            <animate attributeName="x1" from="-100%" to="100%" dur="15s" repeatCount="indefinite"/>
            <animate attributeName="x2" from="0%" to="200%" dur="15s" repeatCount="indefinite"/>
            <stop offset="0%" style="stop-color:rgba(52,152,219,0.1)"/>
            <stop offset="50%" style="stop-color:rgba(52,152,219,0.4)"/>
            <stop offset="100%" style="stop-color:rgba(52,152,219,0.1)"/>
        </linearGradient>

        <!-- Region Hover Glow -->
        <filter id="regionGlow" x="-20%" y="-20%" width="140%" height="140%">
            <feGaussianBlur in="SourceAlpha" stdDeviation="8"/>
            <feOffset dx="0" dy="0" result="offsetblur"/>
            <feFlood flood-color="#4682B4" flood-opacity="0.6"/>
            <feComposite in2="offsetblur" operator="in"/>
            <feMerge>
                <feMergeNode/>
                <feMergeNode in="SourceGraphic"/>
            </feMerge>
        </filter>
    </defs>

    <!-- Base State Outline - More accurate Arkansas shape -->
    <path class="state-outline" d="M214,134 
        L501,134 
        L502,134
        L606,134
        L606,174 
        C606,174 606,176 608,180 
        L610,185
        L612,190
        L615,200
        L620,215
        L624,235
        L627,255
        L628,275
        L628,295
        L628,320
        L628,370
        L628,420
        L628,470
        L628,520
        L628,570
        L624,600
        L620,620
        L615,640
        L608,660
        L600,680
        L585,700
        L565,720
        L545,736
        L525,746
        L505,754
        L485,760
        L465,764
        L445,768
        L425,770
        L225,770
        L210,765
        L195,760
        L180,750
        L170,740
        L160,725
        L150,710
        L145,690
        L140,670
        L137,650
        L135,630
        L135,600
        L135,570
        L135,540
        L135,500
        L136,480
        L138,460
        L140,440
        L142,420
        L144,400
        L146,380
        L149,350
        L154,310
        L160,280
        L170,250
        L180,220
        L194,180
        L210,150
        L214,134Z"
        fill="url(#countyLines)"
        stroke="#2D5B7F"
        stroke-width="2"
        filter="url(#dropShadow)"/>

    <!-- Regions with Improved Geographical Accuracy -->
    <g class="regions">
        <!-- Northwest Region - Ozark Mountains -->
        <path id="northwest" class="region" d="M214,134 
            L375,134 
            L375,135
            L375,252
            C375,252 374,270 372,285
            C370,300 367,315 362,328
            C357,340 352,350 345,360
            C338,370 330,378 320,384
            C310,390 298,394 285,396
            C272,398 260,398 245,397
            C230,396 216,393 200,388
            C185,383 172,375 160,365
            C160,350 161,335 162,320
            C163,305 165,290 168,275
            C171,260 175,245 180,230
            C185,215 190,200 198,182
            C206,165 214,150 214,134Z"
            fill="url(#northwestGradient)"
            data-region="northwest">
            <title>Northwest Arkansas - Ozark Mountains</title>
        </path>

        <!-- Northeast Region - Arkansas Highlands -->
        <path id="northeast" class="region" d="M375,134 
            L606,134 
            L606,174 
            C606,174 606,176 608,180 
            L610,185
            L612,190
            L615,200
            L620,215
            L624,235
            L627,255
            L628,275
            L628,295
            L628,320
            L628,345
            L502,345
            L455,345
            L445,344
            L435,342
            L425,340
            L410,335
            L395,330
            L385,325
            L375,320
            L375,252
            L375,134Z"
            fill="url(#northeastGradient)"
            data-region="northeast">
            <title>Northeast Arkansas - Arkansas Highlands</title>
        </path>

        <!-- Central Region - Arkansas River Valley -->
        <path id="central" class="region" d="M160,365
            C172,375 185,383 200,388
            C216,393 230,396 245,397
            C260,398 272,398 285,396
            C298,394 310,390 320,384
            C330,378 338,370 345,360
            C352,350 357,340 362,328
            C367,315 370,300 372,285
            C374,270 375,252 375,252
            L375,320
            L385,325
            L395,330
            L410,335
            L425,340
            L435,342
            L445,344
            L455,345
            L502,345
            L628,345
            L628,420
            L628,470
            L502,470
            L428,470
            L418,469
            L408,468
            L398,466
            L388,463
            L378,460
            L368,456
            L358,452
            L348,447
            L338,442
            L328,436
            L318,430
            L308,423
            L298,416
            L288,408
            L278,400
            L268,392
            L255,380
            L241,368
            L225,355
            L190,360
            L160,365Z"
            fill="url(#centralGradient)"
            data-region="central">
            <title>Central Arkansas - Arkansas River Valley</title>
        </path>

        <!-- Southwest Region - Ouachita Mountains -->
        <path id="southwest" class="region" d="M160,365
            L190,360
            L225,355
            L241,368
            L255,380
            L268,392
            L278,400
            L288,408
            L298,416
            L308,423
            L318,430
            L328,436
            L338,442
            L348,447
            L358,452
            L368,456
            L378,460
            L388,463
            L398,466
            L408,468
            L418,469
            L428,470
            L428,770
            L225,770
            L210,765
            L195,760
            L180,750
            L170,740
            L160,725
            L150,710
            L145,690
            L140,670
            L137,650
            L135,630
            L135,600
            L135,570
            L135,540
            L135,500
            L136,480
            L138,460
            L140,440
            L142,420
            L144,400
            L146,380
            L149,350
            L154,310
            L160,280
            L160,365Z"
            fill="url(#southwestGradient)"
            data-region="southwest">
            <title>Southwest Arkansas - Ouachita Mountains</title>
        </path>

        <!-- Southeast Region - Mississippi Delta -->
        <path id="southeast" class="region" d="M428,470
            L502,470
            L628,470
            L628,520
            L628,570
            L624,600
            L620,620
            L615,640
            L608,660
            L600,680
            L585,700
            L565,720
            L545,736
            L525,746
            L505,754
            L485,760
            L465,764
            L445,768
            L425,770
            L428,770
            L428,470Z"
            fill="url(#southeastGradient)"
            data-region="southeast">
            <title>Southeast Arkansas - Mississippi Delta</title>
        </path>
    </g>

    <!-- Tech Pattern Overlay -->
    <g class="tech-overlay" style="opacity: 0.15">
        <use href="#northwest" fill="url(#techPattern)"/>
        <use href="#northeast" fill="url(#techPattern)"/>
        <use href="#central" fill="url(#techPattern)"/>
        <use href="#southwest" fill="url(#techPattern)"/>
        <use href="#southeast" fill="url(#techPattern)"/>
    </g>

    <!-- Topographical Elements -->
    <g class="topography">
        <!-- Ozark Mountains -->
        <path class="topo-line" d="M214,150 Q 240,140 270,145 T 310,160 Q 330,170 350,165" 
              fill="none" stroke="rgba(255,255,255,0.4)" stroke-width="0.8"/>
        <path class="topo-line" d="M220,180 Q 250,165 280,170 T 320,185 Q 340,195 360,190" 
              fill="none" stroke="rgba(255,255,255,0.4)" stroke-width="0.8"/>
        <path class="topo-line" d="M225,210 Q 255,195 285,200 T 325,215 Q 345,225 365,220" 
              fill="none" stroke="rgba(255,255,255,0.4)" stroke-width="0.8"/>
              
        <!-- Ouachita Mountains -->
        <path class="topo-line" d="M160,400 Q 190,380 220,385 T 260,395 Q 290,405 320,400" 
              fill="none" stroke="rgba(255,255,255,0.4)" stroke-width="0.8"/>
        <path class="topo-line" d="M170,430 Q 200,410 230,415 T 270,425 Q 300,435 330,430" 
              fill="none" stroke="rgba(255,255,255,0.4)" stroke-width="0.8"/>
              
        <!-- Mississippi Delta -->
        <path class="topo-line" d="M510,550 Q 550,540 590,550" 
              fill="none" stroke="rgba(255,255,255,0.35)" stroke-width="0.8" stroke-dasharray="2 3"/>
        <path class="topo-line" d="M500,600 Q 540,590 580,600" 
              fill="none" stroke="rgba(255,255,255,0.35)" stroke-width="0.8" stroke-dasharray="2 3"/>
        <path class="topo-line" d="M490,650 Q 530,640 570,650" 
              fill="none" stroke="rgba(255,255,255,0.35)" stroke-width="0.8" stroke-dasharray="2 3"/>
    </g>

    <!-- Rivers -->
    <g class="rivers">
        <!-- Arkansas River -->
        <path class="river" d="M180,250 Q 220,260 260,280 T 320,310 Q 360,325 400,340 T 500,365 Q 550,380 600,400"
              fill="none" stroke="url(#riverFlow)" stroke-width="3" stroke-linecap="round"/>

        <!-- Mississippi River -->
        <path class="river" d="M628,250 Q 625,300 628,350 T 624,450 Q 620,500 615,550 T 590,650 Q 570,700 545,736"
              fill="none" stroke="url(#riverFlow)" stroke-width="4" stroke-linecap="round"/>

        <!-- White River -->
        <path class="river" d="M550,150 Q 530,180 520,210 T 500,270 Q 490,305 480,340 T 460,410 Q 450,450 440,490"
              fill="none" stroke="url(#riverFlow)" stroke-width="2" stroke-linecap="round"/>
              
        <!-- Ouachita River -->
        <path class="river" d="M225,470 Q 250,480 275,490 T 325,500 Q 350,505 375,510"
              fill="none" stroke="url(#riverFlow)" stroke-width="2" stroke-linecap="round"/>
    </g>

    <!-- Major Cities -->
    <g class="cities">
        <!-- Little Rock -->
        <circle class="city-marker" cx="425" cy="400" r="7" 
                fill="#2D5B7F" stroke="#FFFFFF" stroke-width="2">
            <title>Little Rock - Capital Tech Center</title>
        </circle>
        <text x="445" y="405" class="city-label">Little Rock</text>

        <!-- Fayetteville -->
        <circle class="city-marker" cx="270" cy="170" r="6"
                fill="#2D5B7F" stroke="#FFFFFF" stroke-width="2">
            <title>Fayetteville - Innovation Hub</title>
        </circle>
        <text x="290" y="175" class="city-label">Fayetteville</text>

        <!-- Fort Smith -->
        <circle class="city-marker" cx="180" cy="320" r="6"
                fill="#2D5B7F" stroke="#FFFFFF" stroke-width="2">
            <title>Fort Smith - Tech Gateway</title>
        </circle>
        <text x="200" y="325" class="city-label">Fort Smith</text>

        <!-- Jonesboro -->
        <circle class="city-marker" cx="550" cy="230" r="6"
                fill="#2D5B7F" stroke="#FFFFFF" stroke-width="2">
            <title>Jonesboro - Digital Hub</title>
        </circle>
        <text x="570" y="235" class="city-label">Jonesboro</text>

        <!-- Pine Bluff -->
        <circle class="city-marker" cx="460" cy="550" r="6"
                fill="#2D5B7F" stroke="#FFFFFF" stroke-width="2">
            <title>Pine Bluff - Tech Development</title>
        </circle>
        <text x="480" y="555" class="city-label">Pine Bluff</text>
        
        <!-- Hot Springs -->
        <circle class="city-marker" cx="350" cy="450" r="6"
                fill="#2D5B7F" stroke="#FFFFFF" stroke-width="2">
            <title>Hot Springs - Innovation Center</title>
        </circle>
        <text x="370" y="455" class="city-label">Hot Springs</text>
    </g>

    <!-- Hex Code Indicators -->
    <g class="hex-codes" style="font-family: monospace; font-size: 10px; fill: #FFFFFF">
        <text x="150" y="80" fill="#2D5B7F">#2D5B7F</text>
        <text x="550" y="80" fill="#4682B4">#4682B4</text>
        <text x="400" y="450" fill="#3498DB">#3498DB</text>
    </g>
</svg> 