<?xml version="1.0" encoding="UTF-8"?>
<svg width="512" height="512" viewBox="0 0 512 512" xmlns="http://www.w3.org/2000/svg">
    <defs>
        <!-- Main blue gradient -->
        <linearGradient id="mainBlue" x1="0%" y1="0%" x2="100%" y2="100%">
            <stop offset="0%" style="stop-color:#4FC3F7;stop-opacity:1" />
            <stop offset="100%" style="stop-color:#2196F3;stop-opacity:1" />
        </linearGradient>

        <!-- Accent gradient -->
        <linearGradient id="accentBlue" x1="0%" y1="0%" x2="100%" y2="0%">
            <stop offset="0%" style="stop-color:#4FC3F7;stop-opacity:1" />
            <stop offset="100%" style="stop-color:#2196F3;stop-opacity:0.6" />
        </linearGradient>

        <!-- Glow effect -->
        <filter id="glow" x="-50%" y="-50%" width="200%" height="200%">
            <feGaussianBlur in="SourceGraphic" stdDeviation="2" result="blur"/>
            <feColorMatrix in="blur" type="matrix" values="
                0 0 0 0 0.31
                0 0 0 0 0.76
                0 0 0 0 0.97
                0 0 0 1 0
            "/>
            <feMerge>
                <feMergeNode/>
                <feMergeNode in="SourceGraphic"/>
            </feMerge>
        </filter>

        <!-- Enhanced drop shadow -->
        <filter id="enhancedShadow" x="-20%" y="-20%" width="140%" height="140%">
            <feGaussianBlur in="SourceAlpha" stdDeviation="4"/>
            <feOffset dx="0" dy="4" result="offsetblur"/>
            <feComponentTransfer>
                <feFuncA type="linear" slope="0.6"/>
            </feComponentTransfer>
            <feMerge>
                <feMergeNode/>
                <feMergeNode in="SourceGraphic"/>
            </feMerge>
        </filter>

        <!-- Pulse animation -->
        <filter id="pulse" x="-50%" y="-50%" width="200%" height="200%">
            <feGaussianBlur in="SourceGraphic" stdDeviation="2">
                <animate attributeName="stdDeviation"
                         values="2;4;2"
                         dur="2s"
                         repeatCount="indefinite"/>
            </feGaussianBlur>
        </filter>
    </defs>

    <!-- Main container -->
    <g transform="translate(56, 156)">
        <!-- Background shape with 3D effect -->
        <path d="M-20,0 
                 L380,0 
                 L400,20 
                 L400,180 
                 L380,200 
                 L-20,200 
                 L-40,180 
                 L-40,20 
                 Z" 
              fill="#1D1D1F" 
              filter="url(#enhancedShadow)"/>

        <!-- Blue rectangle with angles -->
        <path d="M-18,2 
                 L378,2 
                 L396,20 
                 L396,178 
                 L378,196 
                 L-18,196 
                 L-36,178 
                 L-36,20 
                 Z" 
              fill="url(#mainBlue)"/>

        <!-- Tech Consulting Symbol -->
        <g transform="translate(190, 100)" filter="url(#glow)">
            <!-- Central hexagon -->
            <path d="M0,-40 L34.6,-20 L34.6,20 L0,40 L-34.6,20 L-34.6,-20 Z" 
                  fill="none" 
                  stroke="#FFFFFF" 
                  stroke-width="3"/>

            <!-- Orbiting circles -->
            <g>
                <circle cx="0" cy="-50" r="8" fill="#FFFFFF" filter="url(#pulse)">
                    <animateTransform attributeName="transform"
                                    type="rotate"
                                    from="0 0 0"
                                    to="360 0 0"
                                    dur="8s"
                                    repeatCount="indefinite"/>
                </circle>
                <circle cx="43.3" cy="-25" r="8" fill="#FFFFFF" filter="url(#pulse)">
                    <animateTransform attributeName="transform"
                                    type="rotate"
                                    from="0 0 0"
                                    to="360 0 0"
                                    dur="8s"
                                    repeatCount="indefinite"
                                    begin="1.33s"/>
                </circle>
                <circle cx="43.3" cy="25" r="8" fill="#FFFFFF" filter="url(#pulse)">
                    <animateTransform attributeName="transform"
                                    type="rotate"
                                    from="0 0 0"
                                    to="360 0 0"
                                    dur="8s"
                                    repeatCount="indefinite"
                                    begin="2.66s"/>
                </circle>
            </g>

            <!-- Connection lines -->
            <g stroke="#FFFFFF" stroke-width="2" opacity="0.6">
                <line x1="0" y1="-40" x2="0" y2="-30"/>
                <line x1="34.6" y1="-20" x2="26" y2="-15"/>
                <line x1="34.6" y1="20" x2="26" y2="15"/>
                <line x1="0" y1="40" x2="0" y2="30"/>
                <line x1="-34.6" y1="20" x2="-26" y2="15"/>
                <line x1="-34.6" y1="-20" x2="-26" y2="-15"/>
            </g>

            <!-- Circuit patterns -->
            <g stroke="url(#accentBlue)" stroke-width="1.5" opacity="0.8">
                <path d="M-60,0 C-40,0 -40,-20 -20,-20"/>
                <path d="M60,0 C40,0 40,20 20,20"/>
                <path d="M0,-60 C0,-40 20,-40 20,-20"/>
                <circle cx="-60" cy="0" r="3" fill="#4FC3F7"/>
                <circle cx="60" cy="0" r="3" fill="#4FC3F7"/>
                <circle cx="0" cy="-60" r="3" fill="#4FC3F7"/>
            </g>
        </g>

        <!-- Left circuit lines -->
        <g stroke="url(#mainBlue)" stroke-width="2">
            <line x1="-80" y1="100" x2="60" y2="100"/>
            <line x1="-60" y1="90" x2="60" y2="90"/>
            <line x1="-40" y1="110" x2="60" y2="110"/>
            <circle cx="-60" cy="100" r="3" fill="#4FC3F7"/>
            <circle cx="-40" cy="100" r="3" fill="#4FC3F7"/>
            <circle cx="-20" cy="100" r="3" fill="#4FC3F7"/>
        </g>

        <!-- Right circuit lines -->
        <g stroke="url(#mainBlue)" stroke-width="2" transform="translate(340,0)">
            <line x1="0" y1="100" x2="140" y2="100"/>
            <line x1="0" y1="90" x2="120" y2="90"/>
            <line x1="0" y1="110" x2="100" y2="110"/>
            <circle cx="20" cy="100" r="3" fill="#4FC3F7"/>
            <circle cx="40" cy="100" r="3" fill="#4FC3F7"/>
            <circle cx="60" cy="100" r="3" fill="#4FC3F7"/>
            <circle cx="80" cy="100" r="3" fill="#4FC3F7"/>
        </g>
    </g>

    <!-- Company name -->
    <g transform="translate(256, 380)" text-anchor="middle">
        <text font-family="Arial, sans-serif" font-size="32" font-weight="800" fill="#FFFFFF" letter-spacing="2">
            ARKANTECH
        </text>
        <text y="30" font-family="Arial, sans-serif" font-size="18" font-weight="400" fill="#FFFFFF" letter-spacing="4">
            SOLUTIONS
        </text>
    </g>
</svg> 